# xmcd
#
# Track frame offsets:
#	150
#	10727
#	48432
#	74797
#	100167
#	120182
#	144557
#	171387
#	218027
#	266319
#	279677
#
# Disc length: 4280 seconds
# Revision: 0
# Processed by: cddbd v1.5.2PL0 Copyright (c) Steve Scherf et al.
# Submitted via: dBpowerAMP V12.0
#
DISCID=9f10b60b
DTITLE=Various / Symphony #2
DYEAR=
DGENRE=
TTITLE0=Bernstein;Foss;New York Phil / Prologue
TTITLE1=Bernstein;Foss;New York Phil / Seven Ages
TTITLE2=Bernstein;Foss;New York Phil / Seven Stages
TTITLE3=Bernstein;Foss;New York Phil / Dirge
TTITLE4=Bernstein;Foss;New York Phil / Masque
TTITLE5=Bernstein;Foss;New York Phil / Epilogue
TTITLE6=Bernstein;New York Phil / Andante moderato
TTITLE7=Bernstein;New York Phil / Allegro
TTITLE8=Bernstein;New York Phil / Adagio cantabile
TTITLE9=Bernstein;New York Phil / Lento maestoso
TTITLE10=Bernstein;New York Phil / Allegro molto vivace
EXTD=
EXTT0=
EXTT1=
EXTT2=
EXTT3=
EXTT4=
EXTT5=
EXTT6=
EXTT7=
EXTT8=
EXTT9=
EXTT10=
PLAYORDER=
